  <svg xmlns="http://www.w3.org/2000/svg" width="73" height="35" viewBox="0 0 73 35" fill="none">
                        <rect width="35" height="35" rx="17.5" fill="#C9C9FF" />
                        <path d="M14.1237 17.7904C14.0412 17.7079 14 17.6102 14 17.4974C14 17.3845 14.0412 17.2869 14.1237 17.2044L18.9544 12.3737C19.0369 12.2912 19.1345 12.25 19.2474 12.25C19.3602 12.25 19.4579 12.2912 19.5404 12.3737L20.6211 13.4544C20.7036 13.5369 20.7448 13.6345 20.7448 13.7474C20.7448 13.8602 20.7036 13.9579 20.6211 14.0404L17.1641 17.4974L20.6211 20.9544C20.7036 21.0369 20.7448 21.1345 20.7448 21.2474C20.7448 21.3602 20.7036 21.4579 20.6211 21.5404L19.5404 22.6211C19.4579 22.7036 19.3602 22.7448 19.2474 22.7448C19.1345 22.7448 19.0369 22.7036 18.9544 22.6211L14.1237 17.7904Z" fill="white" />
                        <rect x="37.918" width="35" height="35" rx="17.5" fill="white" />
                        <path d="M58.5391 17.2044C58.6215 17.2869 58.6628 17.3845 58.6628 17.4974C58.6628 17.6102 58.6215 17.7079 58.5391 17.7904L53.7083 22.6211C53.6259 22.7036 53.5282 22.7448 53.4154 22.7448C53.3025 22.7448 53.2049 22.7036 53.1224 22.6211L52.0417 21.5404C51.9592 21.4579 51.918 21.3602 51.918 21.2474C51.918 21.1345 51.9592 21.0369 52.0417 20.9544L55.4987 17.4974L52.0417 14.0404C51.9592 13.9579 51.918 13.8602 51.918 13.7474C51.918 13.6345 51.9592 13.5369 52.0417 13.4544L53.1224 12.3737C53.2049 12.2912 53.3025 12.25 53.4154 12.25C53.5282 12.25 53.6259 12.2912 53.7083 12.3737L58.5391 17.2044Z" fill="#7373D7" />
                    </svg>